<?xml version="1.0" encoding="UTF-8" standalone="no"?>
<!DOCTYPE svg PUBLIC "-//W3C//DTD SVG 1.1//EN" "http://www.w3.org/Graphics/SVG/1.1/DTD/svg11.dtd">
<svg width="100%" height="100%" viewBox="0 0 1045 1030" version="1.1" xmlns="http://www.w3.org/2000/svg" xmlns:xlink="http://www.w3.org/1999/xlink" xml:space="preserve" xmlns:serif="http://www.serif.com/" style="fill-rule:evenodd;clip-rule:evenodd;stroke-linejoin:round;stroke-miterlimit:2;">
    <g transform="matrix(-1.15846,0,0,1.17552,1089.82,-91.3437)">
        <g id="Artboard1">
            <g id="Layer-2" serif:id="Layer 2">
                <path d="M222.057,626.981C222.057,626.981 174.414,654.473 157.718,659.079C141.021,663.685 129.65,648.427 129.65,648.427L122.291,627.092C122.291,627.092 117.884,567.208 117.428,550.641C116.972,534.075 120.294,503.3 128.219,482.094C133.843,467.047 150.713,464.007 159.529,468.415L220.764,499.412L230.32,472.927" style="fill:rgb(47,79,79);stroke:rgb(47,79,79);stroke-width:1px;"/>
                <path d="M209.919,566.462C209.919,464.876 237.719,326.848 439.559,319.847C598.651,314.328 718.633,457.25 695.432,586.267C674.174,704.48 588.483,808.652 437.963,799.033C301.004,790.28 209.919,668.048 209.919,566.462Z" style="fill:rgb(47,79,79);stroke:rgb(47,79,79);stroke-width:1px;"/>
                <path d="M209.919,566.462C209.919,464.876 237.719,326.848 439.559,319.847C598.651,314.328 802.261,457.81 766.158,583.827C733.621,697.4 588.483,808.652 437.963,799.033C301.004,790.28 209.919,668.048 209.919,566.462Z" style="fill:rgb(47,79,79);stroke:rgb(47,79,79);stroke-width:1px;"/>
                <path d="M259.659,403.657C234.849,396.628 159.402,467.061 161.458,440.48C162.653,425.035 238.226,299.756 288.537,301.122C322.368,302.041 430.69,319.961 430.69,319.961C430.69,319.961 284.469,410.687 259.659,403.657Z" style="fill:rgb(47,79,79);stroke:rgb(47,79,79);stroke-width:1px;"/>
                <path d="M397.4,792.425L397.543,851.807L462.336,851.95C462.336,851.95 478.75,852.141 492.278,837.473C505.806,822.806 502.637,823.611 507.478,811.649C512.32,799.688 514.835,792.212 514.835,792.212L397.4,792.425Z" style="fill:rgb(47,79,79);stroke:rgb(47,79,79);stroke-width:1px;"/>
                <path d="M515.358,293.046L514.838,292.867" style="fill:none;stroke:rgb(47,79,79);stroke-width:1px;stroke-linecap:round;stroke-miterlimit:4;"/>
                <path d="M838.508,297.025C836.908,287.252 834.776,281.211 831.906,274.015C829.036,266.82 827.987,264.686 820.43,253.59C812.873,242.494 809.721,239.808 799.262,229.842C788.802,219.876 779.901,214.472 768.157,207.505C756.413,200.538 753.215,198.583 738.111,192.542C723.007,186.5 715.011,183.124 699.552,181.347C684.093,179.57 677.293,178.58 652.782,181.616C628.271,184.652 619.951,189.283 604.47,195.198C588.99,201.112 577.491,209.114 565.097,220.017C552.702,230.921 548.311,235.505 534.944,255.257C521.578,275.008 521.512,277.294 514.369,295.147C507.227,312.999 507.045,325.744 505.73,332.654" style="fill:none;stroke:rgb(47,79,79);stroke-width:10px;stroke-linecap:round;stroke-miterlimit:4;"/>
                <path d="M467.927,323.678C449.546,327.074 481.912,320.881 481.912,320.881C481.912,320.881 486.207,318.483 491.701,313.289C497.196,308.094 498.195,306.546 503.888,300.103C509.582,293.66 510.332,292.711 514.477,287.516C518.623,282.322 520.471,279.325 520.471,279.325C520.471,279.325 521.22,286.318 521.47,291.912C521.719,297.506 520.92,296.257 521.47,301.701C522.019,307.145 522.618,307.645 523.667,313.688C524.716,319.732 524.217,320.331 525.665,325.875C527.114,331.419 512.08,213.595 529.461,335.865C546.843,458.134 529.261,345.654 529.261,345.654C529.261,345.654 486.307,320.281 467.927,323.678Z" style="fill:none;stroke:rgb(47,79,79);stroke-width:10px;stroke-linecap:round;stroke-miterlimit:4;"/>
                <path d="M497.785,312.38C496.198,316.139 494.569,319.881 493.024,323.658C492.96,323.815 493.046,324.311 492.965,324.162C490.365,319.44 494.173,317.915 497.433,314.215C498.146,313.407 499.768,310.642 499.414,311.66C496.889,318.929 495.809,319.687 491.277,325.698C490.812,326.315 490.183,328.51 490.175,327.738C490.082,318.289 498.003,317.681 502.879,311.1C504.003,309.583 501.019,314.387 500.025,315.992C496.236,322.111 489.359,325.361 492.633,326.604C494.297,327.235 490.274,323.604 490.247,321.824C490.233,320.87 499.557,312.699 501.002,311.336C502.293,310.119 504.941,305.907 504.869,307.679C504.791,309.584 500.973,316.607 500.434,318.253C499.933,319.783 500.471,324.234 499.456,322.984C498.2,321.436 496.865,319.927 495.859,318.207C494.638,316.121 498.801,314.365 500.422,312.573C502.458,310.322 506.88,307.063 507.508,304.181C507.721,303.205 507.271,306.179 506.954,307.127C506.284,309.123 504.875,310.79 503.893,312.652C503.08,314.194 501.47,317.927 501.019,319.279C500.809,319.908 500.474,321.847 500.764,321.251C501.803,319.108 499.33,319.721 499.425,316.293C499.513,313.156 507.914,309.053 508.796,304.645C508.811,304.567 507.481,307.233 507.446,307.306C506.073,310.197 506.467,308.833 505.388,311.873C504.941,313.13 500.742,322.605 501.874,324.266C502.182,324.719 501.88,323.159 502.029,322.632C502.683,320.313 504.037,318.253 505.046,316.065C506.898,312.046 509.848,306.229 509.12,301.691C508.864,300.1 511.541,304.172 511.71,305.774C511.902,307.596 510.515,309.238 509.904,310.965C508.923,313.737 502.566,325.956 503.801,329.148C504.287,330.405 505.844,322.443 506.136,321.565C507.053,318.815 511.6,303.061 512.728,303.338C513.43,303.511 513.442,304.728 513.285,305.433C511.952,311.396 509.312,318.241 507.509,324.025C506.792,326.327 507.305,333.394 506.377,331.169C503.487,324.234 507.543,320.136 510.485,313.182C511.416,310.984 512.34,308.776 513.446,306.661C513.921,305.754 515.09,302.936 514.865,303.936C513.378,310.54 511.509,317.049 510.086,323.686C509.628,325.819 508.976,327.909 508.583,330.055C508.339,331.39 509.011,335.437 508.662,334.126C506.379,325.537 508.204,324.575 511.742,316.209C512.42,314.606 512.735,312.873 513.245,311.209C513.396,310.717 513.379,309.255 513.078,309.673C510.79,312.848 510.316,320.516 510.444,324.094C510.521,326.228 511.428,332.623 511.673,332C512.553,329.759 511.193,327.09 511.871,324.78C513.374,319.661 515.929,315.304 515.482,309.662C515.458,309.361 515.453,308.926 515.175,308.811C514.495,308.53 514.281,310.016 514.064,310.719C513.358,313.004 512.429,315.22 511.818,317.531C510.721,321.682 511.001,325.701 511.08,330C511.095,330.811 512.211,339.907 513.796,338.377C515.092,337.125 512.238,335.009 512.219,333.207C512.167,328.105 514.122,319.53 515.201,314.252C515.288,313.826 516.534,320.183 516.59,321.264C516.834,325.999 516.552,330.553 516.244,335.303C516.118,337.252 518.375,342.52 517.025,341.109C515.884,339.915 513.938,339.274 513.426,337.704C512.241,334.069 518.221,320.224 517.06,313.826C516.74,312.059 515.808,317.288 515.876,319.083C515.983,321.921 516.516,325.91 517.647,328.577C518.702,331.067 519.855,333.528 521.248,335.846C521.61,336.447 523.152,337.717 522.466,337.564C517.511,336.457 520.598,334.197 515.98,337.614C514.98,338.353 517.087,335.35 517.303,334.125C517.677,332.011 517.547,329.838 517.644,327.693C517.68,326.901 515.862,317.838 517.874,318.325C522.917,319.549 521.524,331.552 520.991,335.265C520.757,336.891 517.705,334.034 516.811,332.657C516.205,331.721 517.167,330.447 517.186,329.333C517.262,324.755 514.782,319.392 515.861,315.043L516.29,314.731C522.232,316.876 521.906,324.573 521.758,330.01C521.617,335.144 521.717,333.172 516.442,335.065C516.373,335.09 516.365,335.337 516.355,335.265C515.816,331.516 514.585,323.425 517.874,321.837C519.085,321.253 518.738,321.027 518.219,320.081C517.936,319.564 517.804,321.231 517.871,321.817C518.094,323.767 518.693,325.713 518.902,327.654C519.285,331.217 523.371,340.541 518.673,342.634C509.551,346.696 515.669,317.935 516.275,315.087C516.301,314.964 517.034,313.013 517.888,313.55C522.935,316.726 521.937,338.256 517.526,341.218C515.976,342.259 513.79,341.557 511.929,341.409C511.015,341.336 515.558,321.324 515.561,321.296C515.617,320.823 515.089,311.795 516.95,313.924C522.969,320.812 519.441,339.766 510.208,341.557C507.432,342.096 508.566,335.995 508.855,333.181C509.126,330.54 511.724,305.332 516.976,308.576C521.413,311.317 513.848,331.011 510.453,333.61C504.68,338.029 508.981,308.966 514.278,309.313C515.544,309.395 515.391,311.126 515.31,311.772C514.509,318.134 514.398,331.894 507.485,334.769C505.973,335.398 503.974,334.65 502.711,333.608C502.088,333.094 503.457,328.907 503.589,328.488C506.144,320.384 510.022,310.42 516.087,304.262C516.853,303.484 516.045,306.447 515.908,307.53C515.233,312.835 515.984,308.868 514.074,314.594C511.995,320.824 510.904,333.691 501.799,330.571C501.338,330.413 503.495,323.367 503.864,322.531C505.048,319.845 506.296,317.183 507.692,314.601C508.617,312.889 512.508,303.237 514.228,303.66C516.215,304.149 513.847,309.786 511.71,315.675C509.552,321.623 508.511,326.331 502.6,329.468C501.526,330.039 502.628,319.999 502.707,319.647C503.545,315.909 505.007,307.542 507.654,304.82C508.814,303.628 513.494,302.308 511.843,302.11C510.908,301.998 511.542,303.975 511.27,304.876C510.205,308.407 505.162,326.242 500.21,324.882C496.43,323.844 504.92,309.896 505.463,309.058C505.542,308.935 509.019,304.51 508.971,304.75C507.761,310.798 502.223,319.782 496.37,321.068C494.971,321.376 496.675,317.057 496.769,316.888C498.75,313.286 502.109,308.474 505.219,305.865C505.988,305.22 508.494,303.636 507.861,304.416C506.195,306.466 498.886,323.941 498.732,323.954C496.821,324.114 495.355,322.066 493.936,320.776C493.549,320.423 503.811,309.062 504.906,307.71C505.302,307.221 504.345,308.837 504.027,309.38C503.461,310.347 502.542,311.076 501.98,312.045C500.448,314.684 499.06,317.405 497.683,320.128C496.651,322.168 496.803,325.316 494.754,326.331C492.787,327.305 490.413,325.525 488.363,324.741C487.633,324.462 489.934,324.332 490.514,323.808C491.467,322.947 492.283,321.945 493.212,321.059C495.231,319.136 496.816,316.763 498.961,314.981C500.413,313.775 504.84,310.377 503.699,311.881C500.054,316.691 494.916,326.968 488.26,328.163C484.57,328.826 487.129,325.065 487.43,324.647C489.382,321.934 492.308,318.059 495.177,316.258C497.163,315.011 499.437,314.293 501.57,313.319C501.6,313.305 501.686,313.268 501.666,313.294C500.289,315.098 495.675,323.035 493.913,323.292C492.806,323.453 489.945,322.844 490.778,322.099C493.721,319.467 496.661,316.832 499.603,314.198" style="fill:none;stroke:rgb(47,79,79);stroke-width:10px;stroke-miterlimit:4;"/>
                <g transform="matrix(1.61602,0,0,1.61602,-517.035,-198.456)">
                    <path d="M825.252,322.161C825.252,311.403 831.551,302.681 839.321,302.681C847.09,302.681 853.389,311.403 853.389,322.161C853.389,332.92 847.09,341.641 839.321,341.641C831.551,341.641 825.252,332.92 825.252,322.161Z" style="fill:rgb(247,212,116);"/>
                </g>
            </g>
        </g>
    </g>
</svg>
